<svg xmlns="http://www.w3.org/2000/svg" xmlns:xlink="http://www.w3.org/1999/xlink" width="1920" zoomAndPan="magnify" viewBox="0 0 1440 1439.999935" height="1920" preserveAspectRatio="xMidYMid meet" version="1.0"><defs><g/><clipPath id="29357cd81a"><rect x="0" width="1324" y="0" height="1396"/></clipPath></defs><rect x="-144" width="1728" fill="#ffffff" y="-143.999994" height="1727.999922" fill-opacity="1"/><rect x="-144" width="1728" fill="#ffffff" y="-143.999994" height="1727.999922" fill-opacity="1"/><g transform="matrix(1, 0, 0, 1, 58, 22)"><g clip-path="url(#29357cd81a)"><g fill="#3e609d" fill-opacity="1"><g transform="translate(227.397965, 407.881149)"><g><path d="M 124.71875 -11.3125 C 140.570312 -7.269531 154.0625 -8.503906 165.1875 -15.015625 C 176.3125 -21.523438 184.382812 -33.234375 189.40625 -50.140625 L 213.265625 -130.546875 L 83.265625 -169.125 L 96.765625 -214.640625 L 285.34375 -158.6875 L 248.375 -34.078125 C 242.28125 -13.566406 232.816406 2.695312 219.984375 14.71875 C 207.148438 26.75 191.519531 34.289062 173.09375 37.34375 C 154.664062 40.40625 134.148438 38.988281 111.546875 33.09375 Z M 55.515625 -68.765625 C 61.929688 -90.398438 71.082031 -105.070312 82.96875 -112.78125 L 129.796875 -98.890625 C 124.398438 -89.390625 119.085938 -75.8125 113.859375 -58.15625 L 65.765625 103.9375 L 9.25 87.171875 Z M 55.515625 -68.765625 "/></g></g></g><g fill="#3e609d" fill-opacity="1"><g transform="translate(476.786191, 481.876239)"><g><path d="M 86.625 -168.125 L 67.03125 -173.9375 L 80.53125 -219.453125 L 158.6875 -196.265625 L 92.328125 27.390625 L 33.765625 10.015625 Z M 86.625 -168.125 "/></g></g></g><g fill="#3e609d" fill-opacity="1"><g transform="translate(599.521744, 518.292667)"><g><path d="M 86.625 -168.125 L 67.03125 -173.9375 L 80.53125 -219.453125 L 158.6875 -196.265625 L 92.328125 27.390625 L 33.765625 10.015625 Z M 86.625 -168.125 "/></g></g></g><g fill="#3e609d" fill-opacity="1"><g transform="translate(722.257297, 554.709095)"><g><path d="M 97.4375 -164.921875 L 62.375 -175.3125 L 75.875 -220.828125 L 169.5 -193.046875 L 131.640625 -65.453125 L 73.078125 -82.84375 Z M 97.4375 -164.921875 "/></g></g></g><g fill="#3e609d" fill-opacity="1"><g transform="translate(853.573147, 593.671352)"><g><path d="M 102.921875 -28.109375 C 112.367188 -20.296875 122.8125 -13.207031 134.25 -6.84375 C 145.6875 -0.476562 156.628906 4.253906 167.078125 7.359375 C 194.066406 15.367188 217.222656 15.984375 236.546875 9.203125 C 255.878906 2.421875 269 -12.597656 275.90625 -35.859375 L 310.15625 -151.3125 L 366.6875 -134.546875 L 330.484375 -12.5625 C 323.515625 10.945312 311.300781 28.972656 293.84375 41.515625 C 276.382812 54.054688 255.722656 61.21875 231.859375 63 C 207.992188 64.789062 182.6875 61.71875 155.9375 53.78125 C 135.175781 47.625 114.429688 38.765625 93.703125 27.203125 C 72.984375 15.640625 54.097656 2.117188 37.046875 -13.359375 L 96.765625 -214.640625 L 153.28125 -197.859375 Z M 149.65625 -33.125 C 153.382812 -37.019531 157.203125 -43.15625 161.109375 -51.53125 C 165.015625 -59.914062 168.503906 -69.269531 171.578125 -79.59375 L 202.34375 -183.3125 L 259.046875 -166.484375 L 231.921875 -75.078125 C 228.160156 -62.398438 223.1875 -50.992188 217 -40.859375 C 210.8125 -30.722656 204.195312 -23.375 197.15625 -18.8125 Z M 149.65625 -33.125 "/></g></g></g><g fill="#3e609d" fill-opacity="1"><g transform="translate(50.229255, 937.099304)"><g><path d="M 96.765625 -214.640625 L 287.59375 -158.015625 L 221.234375 65.640625 L 30.40625 9.015625 Z M 176.21875 2.5625 L 215.515625 -129.875 L 141.84375 -151.734375 L 102.546875 -19.296875 Z M 176.21875 2.5625 "/></g></g></g><g fill="#3e609d" fill-opacity="1"><g transform="translate(301.855822, 1011.758525)"><g><path d="M 97.4375 -164.921875 L 62.375 -175.3125 L 75.875 -220.828125 L 169.5 -193.046875 L 131.640625 -65.453125 L 73.078125 -82.84375 Z M 97.4375 -164.921875 "/></g></g></g><g fill="#3e609d" fill-opacity="1"><g transform="translate(433.171671, 1050.720782)"><g><path d="M 125.515625 42.125 C 105.992188 36.332031 90 26.847656 77.53125 13.671875 C 65.0625 0.492188 56.929688 -15.3125 53.140625 -33.75 C 49.347656 -52.195312 50.40625 -71.84375 56.3125 -92.6875 L 60.359375 -106.296875 C 63.367188 -116.898438 68.828125 -127.554688 76.734375 -138.265625 C 84.648438 -148.972656 92.472656 -156.632812 100.203125 -161.25 C 102.304688 -162.382812 103.578125 -163.019531 104.015625 -163.15625 L 103.921875 -164.21875 C 99.054688 -164.707031 88.738281 -165.265625 72.96875 -165.890625 L 74.5625 -211.671875 C 90.90625 -211.554688 109.390625 -209.894531 130.015625 -206.6875 C 150.648438 -203.476562 169.675781 -199.289062 187.09375 -194.125 C 221.914062 -183.789062 245.925781 -166.6875 259.125 -142.8125 C 272.332031 -118.9375 273.789062 -89.648438 263.5 -54.953125 L 257.015625 -33.140625 C 250.859375 -12.367188 241.253906 4.738281 228.203125 18.1875 C 215.148438 31.632812 199.742188 40.457031 181.984375 44.65625 C 164.234375 48.863281 145.410156 48.019531 125.515625 42.125 Z M 139.65625 -6.25 C 147.988281 -3.78125 156.019531 -3.9375 163.75 -6.71875 C 171.476562 -9.5 178.34375 -14.628906 184.34375 -22.109375 C 190.351562 -29.597656 195.019531 -38.941406 198.34375 -50.140625 L 204.59375 -71.21875 C 210.382812 -90.738281 211.179688 -106.769531 206.984375 -119.3125 C 202.796875 -131.851562 193.925781 -140.132812 180.375 -144.15625 C 167.0625 -148.113281 155.203125 -145.675781 144.796875 -136.84375 C 134.398438 -128.019531 126.101562 -113.367188 119.90625 -92.890625 L 114.59375 -74.984375 C 111.269531 -63.785156 110.082031 -53.410156 111.03125 -43.859375 C 111.988281 -34.316406 114.945312 -26.269531 119.90625 -19.71875 C 124.863281 -13.175781 131.445312 -8.6875 139.65625 -6.25 Z M 139.65625 -6.25 "/></g></g></g><g fill="#3e609d" fill-opacity="1"><g transform="translate(680.32156, 1124.051744)"><g><path d="M 75.984375 26.40625 C 57.085938 20.789062 36.253906 11.425781 13.484375 -1.6875 L 35.0625 -41.546875 C 52.625 -31.867188 68.117188 -25.039062 81.546875 -21.0625 C 99.734375 -15.800781 114.285156 -15.84375 125.203125 -21.1875 C 136.128906 -26.539062 143.9375 -37.113281 148.625 -52.90625 L 175.03125 -141.890625 L 73.375 -172.046875 L 86.875 -217.5625 L 246.921875 -170.078125 L 210 -45.65625 C 199.59375 -10.582031 182.832031 12.617188 159.71875 23.953125 C 136.601562 35.285156 108.691406 36.101562 75.984375 26.40625 Z M 75.984375 26.40625 "/></g></g></g><g fill="#3e609d" fill-opacity="1"><g transform="translate(891.471481, 1186.701283)"><g><path d="M 52.796875 19.734375 C 45.710938 17.628906 39.117188 15.226562 33.015625 12.53125 C 26.910156 9.84375 19.78125 6.269531 11.625 1.8125 L 24.890625 -42.125 C 32.847656 -38.425781 41.675781 -35.132812 51.375 -32.25 C 59.957031 -29.707031 67.03125 -30.179688 72.59375 -33.671875 C 78.164062 -37.160156 82.410156 -43.816406 85.328125 -53.640625 L 116.65625 -159.21875 L 77.109375 -170.9375 L 90.609375 -216.453125 L 188.71875 -187.34375 L 142.5 -31.59375 C 138.039062 -16.539062 131.519531 -4.46875 122.9375 4.625 C 114.351562 13.71875 104.09375 19.566406 92.15625 22.171875 C 80.21875 24.785156 67.097656 23.972656 52.796875 19.734375 Z M 52.796875 19.734375 "/></g></g></g></g></g></svg>